<svg width="86" height="100" viewBox="0 0 86 100" fill="none" xmlns="http://www.w3.org/2000/svg">
<path d="M55.3081 69.4525C55.2874 69.4525 55.2666 69.4525 55.2459 69.4318C55.2252 69.411 55.2044 69.3903 55.2044 69.3696L55.0385 68.5608C55.0178 68.4986 55.0592 68.4571 55.1215 68.4364C66.4446 66.1966 73.6407 59.3115 76.4819 47.9884C78.3691 40.5226 77.6225 33.3887 77.4151 31.8333C75.5901 31.6674 73.8067 31.5844 72.0854 31.5844C62.5872 31.5844 54.9348 34.0938 49.3355 39.0502C40.0655 47.2626 39.6507 59.4982 39.6507 59.6226C39.6507 59.6433 39.63 59.6848 39.6092 59.6848C39.5885 59.7055 39.5677 59.7055 39.547 59.7055L38.7175 59.6848C38.6967 59.6848 38.6553 59.6641 38.6553 59.6433C38.6345 59.6226 38.6345 59.6018 38.6345 59.5604C38.6345 59.4359 39.0908 46.7441 48.6926 38.2207C54.4786 33.0983 62.3799 30.4853 72.1268 30.4853C73.9933 30.4853 75.9634 30.589 77.9543 30.7756L78.2654 30.7964C78.3069 30.7964 78.3483 30.8378 78.3483 30.8793L78.3898 31.1904C78.4105 31.2733 79.6756 39.465 77.4981 48.1336C76.2123 53.2767 73.9933 57.611 70.9033 61.012C67.0252 65.3463 61.7784 68.1668 55.3081 69.4525Z" fill="black"/>
<path d="M72.1061 30.6512C73.9726 30.6512 75.922 30.7549 77.9336 30.9415L78.2447 30.9622L78.2861 31.2733C78.3069 31.3563 79.5719 39.4857 77.3944 48.175C76.1086 53.2974 73.8896 57.6109 70.8204 61.012C66.963 65.2634 61.737 68.063 55.3081 69.3281L55.1422 68.5193C66.5068 66.2795 73.7237 59.353 76.5856 47.9884C78.4935 40.4189 77.7262 33.2849 77.5188 31.7088C75.6524 31.5429 73.8482 31.46 72.1061 31.46C62.5665 31.46 54.9141 33.9693 49.294 38.9672C39.9825 47.2211 39.547 59.4981 39.547 59.6226L38.7175 59.6018C38.7175 59.4774 39.1737 46.827 48.7341 38.3451C54.5201 33.2227 62.3591 30.6512 72.1061 30.6512ZM72.1061 30.4438C62.3177 30.4438 54.4164 33.0568 48.5889 38.1999C38.9456 46.7441 38.4894 59.4774 38.4894 59.6018C38.4894 59.664 38.5101 59.7055 38.5516 59.747C38.5931 59.7885 38.6345 59.8092 38.6968 59.8092L39.5263 59.8299C39.5885 59.8299 39.63 59.8092 39.6715 59.7677C39.7129 59.7262 39.7337 59.6848 39.7337 59.6226C39.7337 59.4981 40.1692 47.304 49.4185 39.1124C54.9971 34.1767 62.6287 31.6673 72.1061 31.6673C73.7859 31.6673 75.5487 31.7503 77.3322 31.8955C77.5396 33.6167 78.2239 40.6055 76.3782 47.9262C73.5371 59.2078 66.3824 66.0722 55.1007 68.3119C54.9971 68.3326 54.9141 68.4363 54.9348 68.5607L55.1007 69.3695C55.1215 69.4318 55.1422 69.4732 55.1837 69.494C55.2252 69.5147 55.2667 69.5354 55.3081 69.5354C55.3289 69.5354 55.3289 69.5354 55.3496 69.5354C61.8407 68.2497 67.0875 65.4293 70.9863 61.1364C74.097 57.7146 76.316 53.3596 77.6225 48.1958C79.8 39.5064 78.535 31.2941 78.5143 31.2111L78.4728 30.9C78.4521 30.8171 78.3898 30.7341 78.2861 30.7341L77.9751 30.7134C75.9427 30.5267 73.9726 30.4438 72.1061 30.4438Z" fill="black"/>
<path d="M32.8277 69.4525C26.3367 68.1667 21.1106 65.3671 17.2326 61.095C14.1426 57.6939 11.9236 53.3389 10.6378 48.2165C8.46027 39.4857 9.7253 31.3563 9.74604 31.2733L9.78751 30.9623C9.78751 30.9208 9.82899 30.8793 9.87047 30.8793L10.1815 30.8586C12.1724 30.6719 14.1011 30.5682 15.9675 30.5682C20.9654 30.5682 25.5071 31.2526 29.4889 32.6006C35.9178 34.7781 40.9571 38.6976 44.4827 44.214C44.5034 44.2555 44.5034 44.3177 44.4412 44.3592L43.7361 44.8154C43.7153 44.8362 43.6946 44.8362 43.6739 44.8362H43.6531C43.6324 44.8362 43.6117 44.8154 43.5909 44.7947C40.1898 39.465 35.3371 35.7113 29.1363 33.596C25.279 32.2895 20.841 31.6259 15.9675 31.6259C14.267 31.6259 12.4835 31.7088 10.6793 31.8747C10.4719 33.4301 9.74604 40.5641 11.6125 48.0299C14.4536 59.3737 21.6498 66.2381 32.9729 68.4778C33.0351 68.4986 33.0559 68.54 33.0559 68.6022L32.89 69.411C32.89 69.4318 32.8692 69.4525 32.8485 69.4733C32.8692 69.4318 32.8485 69.4525 32.8277 69.4525Z" fill="black"/>
<path d="M15.9883 30.6512C20.9862 30.6512 25.4864 31.3355 29.4682 32.6835C35.8763 34.861 40.895 38.7598 44.4205 44.2555L43.7154 44.7117C40.2936 39.3612 35.4201 35.5869 29.1986 33.4716C25.3205 32.1443 20.8825 31.4807 15.9883 31.4807C14.2463 31.4807 12.4628 31.5637 10.6171 31.7296C10.4097 33.3057 9.6424 40.4396 11.5503 48.0091C14.4122 59.3944 21.6291 66.3003 32.9937 68.54L32.8278 69.3488C26.3782 68.0838 21.1729 65.2841 17.3156 61.0328C14.2256 57.6317 12.0273 53.3181 10.7415 48.1958C8.56401 39.5064 9.82904 31.377 9.84978 31.2941L9.89126 30.983L10.2023 30.9622C12.1932 30.7341 14.1219 30.6512 15.9883 30.6512ZM15.9883 30.4438C14.1219 30.4438 12.1725 30.5475 10.1816 30.7341L9.87052 30.7549C9.76683 30.7549 9.70462 30.8378 9.68388 30.9208L9.6424 31.2318C9.62166 31.3148 8.35663 39.4649 10.5341 48.2165C11.8199 53.3803 14.0597 57.7354 17.1704 61.1572C21.0485 65.45 26.316 68.2704 32.8071 69.5562C32.8278 69.5562 32.8278 69.5562 32.8485 69.5562C32.89 69.5562 32.9315 69.5354 32.973 69.5147C33.0144 69.494 33.0559 69.4318 33.0559 69.3903L33.2218 68.5815C33.2426 68.4778 33.1804 68.3534 33.0559 68.3326C21.7743 66.0929 14.6196 59.2493 11.7784 47.9469C9.93274 40.6263 10.6171 33.6375 10.8245 31.9162C12.608 31.771 14.35 31.6881 16.0091 31.6881C20.8826 31.6881 25.2998 32.3517 29.1571 33.6582C35.3371 35.7528 40.1692 39.5064 43.5702 44.8154C43.591 44.8569 43.6532 44.8984 43.6947 44.8984C43.7154 44.8984 43.7154 44.8984 43.7361 44.8984C43.7776 44.8984 43.8191 44.8776 43.8398 44.8569L44.5449 44.4006C44.6486 44.3384 44.6694 44.214 44.6071 44.1103C41.0609 38.5525 36.0008 34.6329 29.5512 32.4554C25.5487 31.1281 20.9862 30.4438 15.9883 30.4438Z" fill="black"/>
<path d="M52.8609 35.7321C52.8194 35.7321 52.7572 35.6906 52.7572 35.6491C51.4092 25.0518 40.8327 17.4201 40.729 17.3372C40.7082 17.3165 40.6875 17.2957 40.6875 17.275C40.6875 17.2542 40.6875 17.2128 40.7082 17.192L41.1852 16.5077C41.206 16.4869 41.2267 16.4662 41.2474 16.4662H41.2682C41.2889 16.4662 41.3096 16.4662 41.3304 16.4869C41.4341 16.5699 52.3839 24.4712 53.7941 35.5247C53.7941 35.5454 53.7941 35.5869 53.7734 35.6076C53.7526 35.6284 53.7319 35.6491 53.7111 35.6491L52.8609 35.7321Z" fill="black"/>
<path d="M41.2683 16.5699C41.372 16.6529 52.3011 24.5334 53.6905 35.5247L52.861 35.6284C51.513 24.9896 40.895 17.3165 40.7913 17.2335L41.2683 16.5699ZM41.2683 16.3625C41.2476 16.3625 41.2476 16.3625 41.2268 16.3625C41.1646 16.3625 41.1231 16.404 41.1024 16.4455L40.6254 17.1298C40.5632 17.2335 40.5839 17.358 40.6669 17.4202C40.7706 17.5031 51.3264 25.1141 52.6536 35.6699C52.6744 35.7736 52.7573 35.8565 52.861 35.8565H52.8817L53.7113 35.7528C53.7735 35.7528 53.815 35.7113 53.8564 35.6699C53.8979 35.6284 53.8979 35.5662 53.8979 35.5247C52.4877 24.4297 41.5172 16.5077 41.3927 16.4247C41.3512 16.3625 41.3098 16.3625 41.2683 16.3625Z" fill="black"/>
<path d="M48.5059 38.9258C48.4852 38.9258 48.4644 38.9258 48.4437 38.905C48.423 38.8843 48.4022 38.8635 48.4022 38.8428C46.1003 26.4828 37.6183 20.4272 37.5354 20.365C37.5146 20.3443 37.4939 20.3235 37.4939 20.3028C37.4939 20.282 37.4939 20.2406 37.5146 20.2198L37.9916 19.5355C38.0124 19.5147 38.0331 19.494 38.0538 19.494H38.0746C38.0953 19.494 38.116 19.494 38.1368 19.5147C38.2197 19.5769 47.075 25.9021 49.4391 38.6562C49.4599 38.7184 49.4184 38.7599 49.3562 38.7806L48.5059 38.9258Z" fill="black"/>
<path d="M38.0746 19.5977C38.1575 19.6599 46.9713 25.9436 49.3147 38.6769L48.5059 38.8221C46.204 26.4206 37.6805 20.3443 37.5976 20.282L38.0746 19.5977ZM38.0746 19.3903C38.0538 19.3903 38.0538 19.3903 38.0331 19.3903C37.9709 19.3903 37.9294 19.4318 37.9087 19.4732L37.4317 20.1576C37.3695 20.2613 37.3902 20.3857 37.4732 20.4479C37.5561 20.5102 46.0173 26.545 48.2985 38.8635C48.2985 38.9258 48.34 38.9672 48.3815 38.988C48.423 39.0087 48.4645 39.0294 48.5059 39.0294C48.5267 39.0294 48.5267 39.0294 48.5474 39.0294L49.3562 38.8843C49.4599 38.8635 49.5428 38.7598 49.5221 38.6354C47.1579 25.8192 38.282 19.494 38.1783 19.4318C38.1575 19.411 38.116 19.3903 38.0746 19.3903Z" fill="black"/>
<path d="M43.3213 42.9905L42.4918 42.866C42.4711 42.866 42.4503 42.8453 42.4296 42.8246C42.4088 42.8038 42.4088 42.7831 42.4088 42.7416C43.7568 33.5753 35.1504 23.0195 35.0675 22.9158C35.0468 22.8951 35.0468 22.8743 35.0468 22.8329C35.0468 22.8121 35.0675 22.7706 35.0882 22.7706L35.7311 22.2522C35.7519 22.2314 35.7726 22.2314 35.7933 22.2314C35.8141 22.2314 35.8555 22.2522 35.8763 22.2729C36.2496 22.7292 44.856 33.3057 43.4458 42.9075C43.4458 42.949 43.3835 42.9905 43.3213 42.9905Z" fill="black"/>
<path d="M35.7934 22.3144C36.1667 22.7499 44.7523 33.3057 43.3421 42.866L42.5126 42.7416C43.8813 33.5545 35.2334 22.9365 35.1505 22.8328L35.7934 22.3144ZM35.7934 22.107C35.7519 22.107 35.7104 22.1277 35.6689 22.1485L35.0261 22.6669C34.9431 22.7499 34.9224 22.8743 35.0053 22.9573C35.0883 23.061 43.6739 33.596 42.3259 42.7001C42.3259 42.7623 42.3259 42.8038 42.3674 42.8453C42.4089 42.8868 42.4504 42.9282 42.5126 42.9282L43.3421 43.0527H43.3628C43.4665 43.0527 43.5495 42.9697 43.5702 42.866C45.0012 33.2227 36.3533 22.584 35.98 22.1485C35.9178 22.1485 35.8556 22.107 35.7934 22.107Z" fill="black"/>
<path d="M37.9087 38.1377C37.8672 38.1377 37.805 38.0962 37.805 38.0547C36.6852 30.5475 32.6619 26.3376 32.6205 26.2961C32.579 26.2547 32.579 26.1924 32.6205 26.151L33.2219 25.5703C33.2426 25.5496 33.2633 25.5496 33.2841 25.5496C33.3048 25.5496 33.3463 25.5703 33.367 25.591C33.5329 25.7777 37.6599 30.0705 38.8419 37.9303C38.8419 37.9511 38.8419 37.9925 38.8212 38.0133C38.8005 38.034 38.7797 38.0547 38.759 38.0547L37.9087 38.1377Z" fill="black"/>
<path d="M33.284 25.6532C33.4499 25.8399 37.5561 30.112 38.7174 37.9303L37.8879 38.0547C36.768 30.5267 32.7033 26.2754 32.6619 26.2339L33.284 25.6532ZM33.284 25.4459C33.2218 25.4459 33.1803 25.4666 33.1388 25.5081L32.5374 26.0887C32.496 26.1302 32.4752 26.1717 32.4752 26.2339C32.4752 26.2961 32.496 26.3376 32.5374 26.3791C32.5789 26.4206 36.5814 30.6304 37.7013 38.0755C37.722 38.1792 37.805 38.2621 37.9087 38.2621H37.9294L38.7589 38.1377C38.8211 38.1377 38.8626 38.0962 38.9041 38.0547C38.9456 38.0133 38.9456 37.951 38.9456 37.9096C37.7635 30.029 33.6158 25.6947 33.4499 25.5288C33.3877 25.4666 33.3462 25.4459 33.284 25.4459Z" fill="black"/>
<path d="M44.2546 71.5056C44.2338 71.5056 44.2131 71.5056 44.1923 71.4849C32.7033 61.572 26.71 50.6844 27.3114 40.8129C27.8298 32.4554 32.3715 25.6325 36.1044 21.3812C39.7336 17.2335 43.3835 14.5997 44.0886 14.1228L44.1509 14.0813C44.1923 14.0605 44.2131 14.0398 44.2338 14.0398C44.2546 14.0398 44.2753 14.0191 44.2753 14.0191C44.296 14.0191 44.3168 14.0191 44.3375 14.0398L44.3582 14.0605C44.773 14.3509 48.5059 17.0054 52.2388 21.3189C55.9302 25.5703 60.4304 32.3932 60.9281 40.73C61.5295 50.8295 55.6399 61.7586 44.3375 71.5056C44.296 71.4849 44.2753 71.5056 44.2546 71.5056ZM44.2546 15.2634C43.031 16.1551 39.9825 18.5193 36.851 22.0655C33.2218 26.1924 28.8045 32.808 28.3276 40.8751C27.7261 50.5392 33.2425 60.6595 44.2546 70.1783C55.0592 60.8461 60.4512 50.6844 59.8705 40.7715C59.3935 32.725 55.0385 26.1095 51.4507 21.9826C48.4437 18.5193 45.4574 16.1551 44.2546 15.2634Z" fill="black"/>
<path d="M44.2545 14.102L44.2753 14.1228C44.8145 14.4961 48.4644 17.1091 52.1351 21.3604C55.8058 25.6118 60.306 32.4139 60.783 40.7093C61.3844 50.8917 55.4532 61.7171 44.2338 71.4019C33.0351 61.7586 26.7722 50.954 27.3943 40.8129C27.9128 32.4969 32.4545 25.674 36.1666 21.4434C39.7751 17.3165 43.4043 14.7034 44.1301 14.2057C44.2131 14.1435 44.2545 14.1228 44.2545 14.102ZM44.2545 70.3028C55.2666 60.8046 60.5548 50.6636 59.9742 40.7715C59.4972 32.7043 55.1214 26.068 51.5337 21.9204C48.4644 18.3741 45.4366 15.9892 44.2545 15.1182C43.1554 15.9063 39.9825 18.3326 36.7888 21.9826C33.1596 26.1302 28.7216 32.7665 28.2239 40.8544C27.6224 50.7258 33.2633 60.8461 44.2545 70.3028ZM44.2545 13.8947C44.2131 13.8947 44.1923 13.8947 44.1509 13.9154C44.1301 13.9154 44.1094 13.9361 44.0679 13.9776L44.0057 14.0191C43.3006 14.5168 39.6506 17.1506 36.0007 21.2982C32.2471 25.5703 27.6847 32.4139 27.1662 40.7922C26.8551 45.8109 28.2031 51.0577 31.1894 56.3874C34.0928 61.572 38.4271 66.6736 44.0886 71.5471C44.1301 71.5886 44.1716 71.5886 44.2338 71.5886C44.2753 71.5886 44.3375 71.5678 44.379 71.5471C49.999 66.6943 54.2919 61.572 57.133 56.3252C59.9949 51.0369 61.3014 45.7694 61.0111 40.6885C60.5134 32.3102 56.0132 25.4874 52.301 21.2153C48.5474 16.9017 44.8145 14.2265 44.3997 13.9569L44.379 13.9361C44.3375 13.9154 44.296 13.8947 44.2545 13.8947ZM44.2545 70.0332C33.3255 60.5558 27.8506 50.477 28.4312 40.8752C28.929 32.8494 33.3255 26.2547 36.9339 22.1278C40.0032 18.6437 42.9895 16.3003 44.2545 15.3878C45.4988 16.321 48.4229 18.6437 51.3885 22.0655C54.9555 26.1925 59.3105 32.7665 59.7668 40.7922C60.3475 50.6222 54.9762 60.7424 44.2545 70.0332Z" fill="black"/>
<path d="M55.3081 69.8673C55.2458 69.8673 55.2044 69.8258 55.2044 69.7636V68.9341C55.2044 68.8718 55.2458 68.8304 55.3081 68.8304H78.1202V1.14061H9.97417V68.8304H32.8278C32.89 68.8304 32.9314 68.8718 32.9314 68.9341V69.7636C32.9314 69.8258 32.89 69.8673 32.8278 69.8673H9.04095C8.97873 69.8673 8.93726 69.8258 8.93726 69.7636V0.20739C8.93726 0.145175 8.97873 0.103699 9.04095 0.103699H79.0327C79.0949 0.103699 79.1363 0.145175 79.1363 0.20739V69.7636C79.1363 69.8258 79.0949 69.8673 79.0327 69.8673H55.3081Z" fill="black"/>
<path d="M79.0327 0.207383V69.7636H55.3081V68.9341H78.2239V1.03691H9.87053V68.9341H32.8278V69.7636H9.041V0.207383H79.0327ZM79.0327 0H9.041C8.91657 0 8.83362 0.0829531 8.83362 0.207383V69.7636C8.83362 69.888 8.91657 69.971 9.041 69.971H32.8278C32.9522 69.971 33.0352 69.888 33.0352 69.7636V68.9341C33.0352 68.8096 32.9522 68.7267 32.8278 68.7267H10.0779V1.2443H77.9958V68.7267H55.3081C55.1837 68.7267 55.1007 68.8096 55.1007 68.9341V69.7636C55.1007 69.888 55.1837 69.971 55.3081 69.971H79.0534C79.1779 69.971 79.2608 69.888 79.2608 69.7636V0.207383C79.2401 0.103691 79.1571 0 79.0327 0Z" fill="black"/>
<path d="M1.80335 99.3779C1.78261 99.4815 1.7204 99.8134 1.67892 99.8963H0.144287V99.8134C0.434623 99.7926 0.455361 99.7719 0.455361 99.4815V98.1958C0.455361 97.9054 0.434624 97.8847 0.165027 97.8847V97.781H1.07751V97.8847C0.807912 97.9054 0.787175 97.9262 0.787175 98.1958V99.4608C0.787175 99.6474 0.807912 99.7097 0.870127 99.7304C0.932342 99.7719 1.05677 99.7719 1.1812 99.7719C1.34711 99.7719 1.47154 99.7511 1.55449 99.6682C1.61671 99.606 1.67892 99.5023 1.74113 99.3364L1.80335 99.3779Z" fill="black"/>
<path d="M6.24139 97.8847C6.05474 97.9054 5.97179 97.9469 5.95105 98.0713C5.95105 98.1543 5.93031 98.2995 5.93031 98.5898V98.8387C5.93031 99.2327 5.8681 99.5023 5.68146 99.7097C5.51555 99.8756 5.30817 99.9378 5.05931 99.9378C4.85192 99.9378 4.66528 99.8963 4.52011 99.7719C4.31273 99.6267 4.20904 99.3779 4.20904 98.9838V98.2165C4.20904 97.9054 4.1883 97.9054 3.9187 97.8847V97.781H4.81045V97.8847C4.54085 97.9054 4.52011 97.9262 4.52011 98.2165V98.9216C4.52011 99.4608 4.74823 99.7511 5.14226 99.7511C5.61924 99.7511 5.78515 99.3778 5.78515 98.8387V98.5898C5.78515 98.2995 5.78515 98.175 5.76441 98.0713C5.74367 97.9469 5.66072 97.9054 5.4326 97.8847V97.781H6.24139V97.8847Z" fill="black"/>
<path d="M9.70458 99.917V99.8134C9.91197 99.7926 9.9327 99.7511 9.87049 99.6475C9.78753 99.5438 9.64237 99.2949 9.43498 98.9631C9.26908 99.212 9.12391 99.4193 9.02022 99.606C8.93727 99.7511 8.95801 99.7719 9.18613 99.8134V99.917H8.39807V99.8134C8.58472 99.7926 8.70914 99.7511 8.7921 99.6267C8.87505 99.523 9.06169 99.2949 9.35203 98.8594C9.18612 98.5898 9.02022 98.3617 8.89579 98.1543C8.75062 97.9469 8.68841 97.9054 8.46029 97.8847V97.781H9.31056V97.8847C9.10317 97.9054 9.12391 97.9469 9.16539 98.0299C9.26908 98.1958 9.39351 98.3824 9.53867 98.6105C9.68384 98.4032 9.78753 98.258 9.87049 98.0921C9.95344 97.9469 9.9327 97.9262 9.70458 97.8847V97.781H10.4926V97.8847C10.2438 97.9054 10.1816 97.9469 10.0157 98.1336C9.9327 98.2373 9.82901 98.3824 9.60089 98.6935C9.78754 98.9838 9.97418 99.2534 10.1401 99.5023C10.2853 99.7304 10.3682 99.7926 10.6171 99.8134V99.917H9.70458Z" fill="black"/>
<path d="M15.1174 97.8847C14.9307 97.9054 14.8478 97.9469 14.827 98.0713C14.827 98.1543 14.8063 98.2995 14.8063 98.5898V98.8387C14.8063 99.2327 14.7441 99.5023 14.5574 99.7097C14.3915 99.8756 14.1841 99.9378 13.9353 99.9378C13.7279 99.9378 13.5413 99.8963 13.3961 99.7719C13.1887 99.6267 13.085 99.3779 13.085 98.9838V98.2165C13.085 97.9054 13.0643 97.9054 12.7947 97.8847V97.781H13.6864V97.8847C13.4168 97.9054 13.3961 97.9262 13.3961 98.2165V98.9216C13.3961 99.4608 13.6242 99.7511 14.0182 99.7511C14.4952 99.7511 14.6611 99.3778 14.6611 98.8387V98.5898C14.6611 98.2995 14.6611 98.175 14.6404 98.0713C14.6196 97.9469 14.5367 97.9054 14.3086 97.8847V97.781H15.1174V97.8847Z" fill="black"/>
<path d="M19.3894 99.9378C19.3479 99.9378 19.3065 99.9378 19.265 99.9378C18.9954 99.917 18.8502 99.8548 18.705 99.6474C18.6014 99.4815 18.4769 99.2949 18.3732 99.129C18.311 99.0253 18.2488 99.0045 18.0829 99.0045H17.9792V99.5023C17.9792 99.7719 18.0207 99.7926 18.2695 99.8133V99.917H17.3571V99.8133C17.6267 99.7926 17.6681 99.7719 17.6681 99.5023V98.2165C17.6681 97.9469 17.6474 97.9262 17.3778 97.9054V97.8017H18.2281C18.4769 97.8017 18.6428 97.8225 18.7673 97.9054C18.9124 97.9884 18.9954 98.1335 18.9954 98.3409C18.9954 98.6313 18.8087 98.7972 18.5806 98.9009C18.6428 99.0045 18.7673 99.2119 18.8709 99.3778C18.9954 99.5438 19.0576 99.6474 19.1405 99.7304C19.2235 99.8341 19.3065 99.8548 19.3687 99.8756L19.3894 99.9378ZM18.1451 98.8801C18.311 98.8801 18.4147 98.8594 18.5184 98.7764C18.6428 98.6727 18.705 98.5483 18.705 98.3824C18.705 98.0298 18.4769 97.9054 18.2281 97.9054C18.1244 97.9054 18.0829 97.9262 18.0414 97.9469C18.0207 97.9676 17.9999 98.0091 17.9999 98.0921V98.9009H18.1451V98.8801Z" fill="black"/>
<path d="M23.4126 97.8847C23.1845 97.9054 23.143 97.9469 22.9978 98.1543C22.8527 98.3824 22.749 98.5483 22.5831 98.8594C22.5416 98.9424 22.5208 98.9838 22.5208 99.0668V99.5023C22.5208 99.7719 22.5416 99.8133 22.8527 99.8341V99.9378H21.878V99.8134C22.1683 99.7926 22.2098 99.7719 22.2098 99.4815V99.0668C22.2098 99.0046 22.189 98.9631 22.1476 98.8594C22.0439 98.6728 21.9194 98.4654 21.7328 98.1543C21.6084 97.9262 21.5669 97.8847 21.3595 97.8847V97.781H22.189V97.8847C21.9402 97.9262 21.9609 97.9676 22.0231 98.0713C22.1683 98.3202 22.3342 98.5898 22.4586 98.8387C22.5831 98.6313 22.7697 98.2995 22.8527 98.1128C22.9149 97.9676 22.9149 97.9262 22.6453 97.9054V97.8017H23.3919V97.8847H23.4126Z" fill="black"/>
<path d="M30.0696 98.2995C30.0489 98.175 30.0281 98.0921 29.9659 98.0299C29.9037 97.9469 29.8415 97.9054 29.5926 97.9054H29.3438C29.2401 97.9054 29.2401 97.9054 29.2401 98.0091V98.7764H29.5719C29.883 98.7764 29.9037 98.735 29.9452 98.5276H30.0489V99.1705H29.9452C29.9037 98.9424 29.883 98.9009 29.5719 98.9009H29.2401V99.4608C29.2401 99.7511 29.2608 99.7719 29.5719 99.7926V99.8963H28.6387V99.8134C28.9083 99.7926 28.929 99.7719 28.929 99.4815V98.2165C28.929 97.9262 28.9083 97.9054 28.6387 97.8847V97.781H30.1318C30.1318 97.9054 30.1526 98.1128 30.1733 98.2787L30.0696 98.2995Z" fill="black"/>
<path d="M34.155 99.3779C34.1343 99.4815 34.0721 99.8134 34.0306 99.8963H32.496V99.8134C32.7863 99.7926 32.807 99.7719 32.807 99.4815V98.1958C32.807 97.9054 32.7863 97.8847 32.5167 97.8847V97.781H33.4292V97.8847C33.1596 97.9054 33.1389 97.9262 33.1389 98.1958V99.4608C33.1389 99.6474 33.1596 99.7097 33.2218 99.7304C33.284 99.7719 33.4085 99.7719 33.5329 99.7719C33.6988 99.7719 33.8232 99.7511 33.9062 99.6682C33.9684 99.606 34.0306 99.5023 34.0928 99.3364L34.155 99.3779Z" fill="black"/>
<path d="M37.5769 97.7395C38.1576 97.7395 38.6968 98.175 38.6968 98.8179C38.6968 99.523 38.1783 99.9585 37.5355 99.9585C36.9133 99.9585 36.4156 99.5023 36.4156 98.8594C36.3949 98.2787 36.8511 97.7395 37.5769 97.7395ZM37.494 97.8639C37.1207 97.8639 36.7681 98.175 36.7681 98.7764C36.7681 99.3778 37.1207 99.8341 37.5977 99.8341C37.971 99.8341 38.3235 99.5437 38.3235 98.9009C38.3235 98.2165 37.9502 97.8639 37.494 97.8639Z" fill="black"/>
<path d="M48.0705 99.3779C48.0498 99.5023 47.9875 99.7926 47.9461 99.8963H46.3077V99.8134C46.6188 99.7926 46.6396 99.7511 46.6396 99.5023V98.2165C46.6396 97.9262 46.6188 97.9054 46.3492 97.8847V97.781H47.8631C47.8631 97.864 47.8838 98.0921 47.9046 98.258L47.8009 98.2787C47.7594 98.1335 47.7387 98.0713 47.6972 97.9884C47.6557 97.9262 47.552 97.8847 47.3239 97.8847H47.0751C46.9714 97.8847 46.9506 97.8847 46.9506 97.9884V98.7142H47.2617C47.552 98.7142 47.5728 98.6935 47.635 98.4654H47.7387V99.1082H47.635C47.5935 98.8801 47.5728 98.8594 47.2617 98.8594H46.9506V99.4608C46.9506 99.606 46.9714 99.6889 47.0336 99.7304C47.0958 99.7719 47.2202 99.7719 47.3654 99.7719C47.6143 99.7719 47.7179 99.7511 47.7802 99.6682C47.8424 99.606 47.9046 99.4815 47.9461 99.3571L48.0705 99.3779Z" fill="black"/>
<path d="M52.3425 99.9378C52.3011 99.9378 52.2596 99.9378 52.2181 99.9378C51.9485 99.917 51.8033 99.8548 51.6582 99.6474C51.5545 99.4815 51.43 99.2949 51.3264 99.129C51.2641 99.0253 51.2019 99.0045 51.036 99.0045H50.9323V99.5023C50.9323 99.7719 50.9738 99.7926 51.2227 99.8133V99.917H50.3102V99.8133C50.5798 99.7926 50.6213 99.7719 50.6213 99.5023V98.2165C50.6213 97.9469 50.6005 97.9262 50.3309 97.9054V97.8017H51.1812C51.4301 97.8017 51.596 97.8225 51.7204 97.9054C51.8656 97.9884 51.9485 98.1335 51.9485 98.3409C51.9485 98.6313 51.7619 98.7972 51.5337 98.9009C51.596 99.0045 51.7204 99.2119 51.8241 99.3778C51.9485 99.5438 52.0107 99.6474 52.0937 99.7304C52.1766 99.8341 52.2596 99.8548 52.3218 99.8756L52.3425 99.9378ZM51.0982 98.8801C51.2641 98.8801 51.3678 98.8594 51.4715 98.7764C51.596 98.6727 51.6582 98.5483 51.6582 98.3824C51.6582 98.0298 51.4301 97.9054 51.1812 97.9054C51.0775 97.9054 51.036 97.9262 50.9945 97.9469C50.9738 97.9676 50.9531 98.0091 50.9531 98.0921V98.9009H51.0982V98.8801Z" fill="black"/>
<path d="M55.7021 98.2995C55.6399 98.0921 55.5362 97.8639 55.2666 97.8639C55.0178 97.8639 54.8933 98.0299 54.8933 98.2165C54.8933 98.4446 55.0385 98.5483 55.3289 98.6935C55.6192 98.8386 55.9095 98.9838 55.9095 99.3364C55.9095 99.6889 55.6192 99.9585 55.1629 99.9585C55.0178 99.9585 54.9141 99.9378 54.8311 99.8963C54.7482 99.8756 54.7067 99.8341 54.6652 99.8341C54.6445 99.7719 54.603 99.4815 54.5823 99.3156L54.686 99.2949C54.7482 99.5023 54.9141 99.8341 55.2459 99.8341C55.4948 99.8341 55.6399 99.6889 55.6399 99.4608C55.6399 99.2327 55.4533 99.1082 55.2044 98.9838C54.9763 98.8594 54.6445 98.7142 54.6445 98.3409C54.6445 98.0091 54.9141 97.7395 55.3496 97.7395C55.5155 97.7395 55.6607 97.781 55.7851 97.8225C55.8058 97.9469 55.8058 98.0713 55.8473 98.2787L55.7021 98.2995Z" fill="black"/>
<path d="M63.479 98.6105C63.2509 98.6313 63.1887 98.6935 63.085 98.8594C63.002 98.9838 62.9191 99.1083 62.7946 99.2949C62.9605 99.4401 63.2301 99.7511 63.3546 99.9585L63.3338 100C63.1264 99.9793 62.9398 99.917 62.8983 99.8756C62.8568 99.8341 62.7117 99.6889 62.608 99.5645C62.3591 99.8756 62.1517 99.9793 61.9029 99.9793C61.4674 99.9793 61.2393 99.6682 61.2393 99.3779C61.2393 99.0875 61.4466 98.9631 61.737 98.7557C61.5918 98.6105 61.5089 98.4861 61.5089 98.2995C61.5089 98.0091 61.7785 97.781 62.0688 97.781C62.3591 97.781 62.5665 97.9677 62.5665 98.2373C62.5665 98.3824 62.5043 98.4654 62.4213 98.5276C62.3591 98.5691 62.2762 98.6313 62.1517 98.7142C62.2554 98.7972 62.5043 99.0046 62.7117 99.2119C62.7946 99.1082 62.8568 98.9838 62.9191 98.8387C62.9813 98.6935 62.9605 98.652 62.7117 98.6105V98.5068H63.479V98.6105ZM62.0066 99.7097C62.214 99.7097 62.4213 99.5645 62.525 99.4401C62.3384 99.2534 62.131 99.046 61.8199 98.8179C61.6125 98.9631 61.5503 99.1083 61.5503 99.2534C61.5503 99.5645 61.7784 99.7097 62.0066 99.7097ZM62.0273 97.8847C61.8821 97.8847 61.7577 98.0299 61.7577 98.2165C61.7577 98.3824 61.8614 98.5068 62.0688 98.652C62.214 98.5483 62.2969 98.4239 62.2969 98.2373C62.2969 98.0299 62.1725 97.8847 62.0273 97.8847Z" fill="black"/>
<path d="M70.8826 99.0253C70.6752 99.0668 70.6752 99.0668 70.6752 99.2742V99.5438C70.6752 99.6474 70.6752 99.7719 70.6959 99.8548C70.4885 99.8963 70.1982 99.9793 69.9286 99.9793C69.1613 99.9793 68.6636 99.523 68.6636 98.8801C68.6636 98.1335 69.3065 97.7603 69.9701 97.7603C70.2604 97.7603 70.53 97.8432 70.6337 97.8639C70.6337 97.9676 70.6544 98.1543 70.6752 98.3824L70.5715 98.4031C70.4885 97.9884 70.2189 97.8847 69.8871 97.8847C69.3687 97.8847 68.9954 98.258 68.9954 98.8386C68.9954 99.3156 69.2857 99.8548 69.9286 99.8548C70.0323 99.8548 70.136 99.8341 70.2189 99.7926C70.2812 99.7511 70.3226 99.7097 70.3226 99.5852V99.3156C70.3226 99.0668 70.3019 99.046 69.9701 99.0253V98.9216H70.8411V99.0253H70.8826Z" fill="black"/>
<path d="M73.1638 99.917V99.8133C73.4334 99.7926 73.4749 99.7719 73.4749 99.5023V98.2165C73.4749 97.9262 73.4542 97.9054 73.1638 97.9054V97.8017H74.0763V97.9054C73.8067 97.9262 73.786 97.9469 73.786 98.2165V99.5023C73.786 99.7926 73.8067 99.8133 74.0763 99.8133V99.917H73.1638Z" fill="black"/>
<path d="M77.8506 98.2995C77.8299 98.175 77.8091 98.0921 77.7469 98.0299C77.6847 97.9469 77.6225 97.9054 77.3736 97.9054H77.1248C77.0211 97.9054 77.0211 97.9054 77.0211 98.0091V98.7764H77.3529C77.664 98.7764 77.6847 98.735 77.7262 98.5276H77.8299V99.1705H77.7262C77.6847 98.9424 77.664 98.9009 77.3529 98.9009H77.0211V99.4608C77.0211 99.7511 77.0418 99.7719 77.3529 99.7926V99.8963H76.4197V99.8134C76.6893 99.7926 76.71 99.7719 76.71 99.4815V98.2165C76.71 97.9262 76.6893 97.9054 76.4197 97.8847V97.781H77.9128C77.9128 97.9054 77.9336 98.1128 77.9543 98.2787L77.8506 98.2995Z" fill="black"/>
<path d="M82.0605 98.3202C82.019 98.1543 81.9982 98.0713 81.9568 98.0091C81.8946 97.9262 81.8531 97.9054 81.5835 97.9054H81.3554V99.5023C81.3554 99.7511 81.3761 99.7926 81.7079 99.8133V99.917H80.7125V99.8133C81.0235 99.7926 81.0443 99.7511 81.0443 99.5023V97.9054H80.8576C80.5673 97.9054 80.5051 97.9469 80.4636 98.0091C80.4221 98.0713 80.4014 98.1543 80.3599 98.3202H80.2562C80.277 98.1128 80.2977 97.8847 80.2977 97.7188H80.3599C80.4014 97.8017 80.4429 97.8017 80.5466 97.8017H81.8946C81.9775 97.8017 82.019 97.781 82.0605 97.7188H82.1227C82.1227 97.8639 82.1434 98.1128 82.1641 98.3202H82.0605Z" fill="black"/>
<path d="M85.6482 98.2995C85.586 98.0921 85.4823 97.8639 85.2127 97.8639C84.9638 97.8639 84.8394 98.0299 84.8394 98.2165C84.8394 98.4446 84.9846 98.5483 85.2749 98.6935C85.5652 98.8386 85.8556 98.9838 85.8556 99.3364C85.8556 99.6889 85.5652 99.9585 85.109 99.9585C84.9638 99.9585 84.8601 99.9378 84.7772 99.8963C84.6942 99.8756 84.6527 99.8341 84.6113 99.8341C84.5905 99.7719 84.5491 99.4815 84.5283 99.3156L84.632 99.2949C84.6942 99.5023 84.8601 99.8341 85.1919 99.8341C85.4408 99.8341 85.586 99.6889 85.586 99.4608C85.586 99.2327 85.3993 99.1082 85.1505 98.9838C84.9223 98.8594 84.5905 98.7142 84.5905 98.3409C84.5905 98.0091 84.8601 97.7395 85.2956 97.7395C85.4615 97.7395 85.6067 97.781 85.7311 97.8225C85.7519 97.9469 85.7519 98.0713 85.7934 98.2787L85.6482 98.2995Z" fill="black"/>
<path d="M5.6814 90.3359V81.46H6.71831V89.4235H10.6586V90.3567H5.6814V90.3359Z" fill="black"/>
<path d="M22.438 85.8772C22.438 86.5616 22.355 87.1837 22.1684 87.7437C22.0025 88.3036 21.7329 88.7806 21.4011 89.1953C21.0485 89.5894 20.6337 89.9004 20.136 90.1286C19.6383 90.3567 19.0369 90.4604 18.3733 90.4604C17.6889 90.4604 17.0875 90.3567 16.569 90.1286C16.0506 89.9004 15.6358 89.5894 15.2833 89.1953C14.9515 88.7806 14.6819 88.3036 14.5159 87.7437C14.35 87.1837 14.2671 86.5616 14.2671 85.8772C14.2671 84.9647 14.4123 84.1767 14.7233 83.4923C15.0137 82.8079 15.4699 82.2688 16.0921 81.8955C16.6935 81.5222 17.4608 81.3148 18.394 81.3148C19.265 81.3148 20.0116 81.5014 20.613 81.8747C21.2144 82.248 21.6707 82.7872 21.9817 83.4716C22.2928 84.1559 22.438 84.944 22.438 85.8772ZM15.3662 85.8772C15.3662 86.6238 15.4699 87.2874 15.698 87.8266C15.9054 88.3865 16.2372 88.8013 16.6935 89.1124C17.1497 89.4235 17.7096 89.5686 18.394 89.5686C19.0784 89.5686 19.6383 89.4235 20.0945 89.1124C20.5301 88.822 20.8619 88.3865 21.0692 87.8266C21.2766 87.2667 21.3803 86.6238 21.3803 85.8772C21.3803 84.7366 21.1315 83.8449 20.6545 83.1812C20.1775 82.5176 19.4309 82.2065 18.4147 82.2065C17.7304 82.2065 17.1497 82.3517 16.7142 82.642C16.2787 82.9324 15.9469 83.3679 15.7188 83.9071C15.4906 84.467 15.3662 85.1099 15.3662 85.8772Z" fill="black"/>
<path d="M33.1803 81.4392L29.9866 90.3152H28.9497L25.756 81.4392H26.8344L28.9082 87.2874C28.9912 87.5155 29.0741 87.7436 29.1363 87.9718C29.1985 88.1999 29.2608 88.3865 29.323 88.5939C29.3852 88.8013 29.4267 88.9879 29.4681 89.1746C29.5096 88.9879 29.5511 88.8013 29.6133 88.5939C29.6755 88.3865 29.717 88.1792 29.7999 87.9718C29.8622 87.7644 29.9451 87.5363 30.0281 87.2874L32.1019 81.4599H33.1803V81.4392Z" fill="black"/>
<path d="M41.9112 90.3359H36.9755V81.46H41.9112V82.3724H37.9916V85.2551H41.6831V86.1468H37.9916V89.4235H41.9112V90.3359Z" fill="black"/>
<path d="M46.4529 90.3359V81.46H47.4898V89.4235H51.4301V90.3567H46.4529V90.3359Z" fill="black"/>
<path d="M60.4512 90.3359H55.5155V81.46H60.4512V82.3724H56.5317V85.2551H60.2231V86.1468H56.5317V89.4235H60.4512V90.3359Z" fill="black"/>
<path d="M67.7096 90.3359H66.6727V82.3724H63.873V81.46H70.4886V82.3724H67.7096V90.3359Z" fill="black"/>
<path d="M79.9659 90.3359L78.8667 87.5155H75.3205L74.2421 90.3359H73.2052L76.6892 81.4185H77.6225L81.065 90.3359H79.9659ZM78.5557 86.5823L77.5188 83.7826C77.498 83.6997 77.4566 83.596 77.3943 83.4301C77.3321 83.2642 77.2906 83.0983 77.2284 82.9116C77.1662 82.725 77.1247 82.5798 77.0833 82.4761C77.0418 82.642 77.0003 82.8079 76.9588 82.9738C76.9174 83.1397 76.8759 83.2849 76.8137 83.4301C76.7515 83.5753 76.7307 83.679 76.6892 83.7826L75.6316 86.5823H78.5557Z" fill="black"/>
<path d="M43.0518 97.8017V97.9054C43.3006 97.9262 43.3006 97.9676 43.2592 98.1335C43.1347 98.5691 43.0103 99.0046 42.8444 99.4401C42.7407 99.1497 42.6578 98.8594 42.5541 98.5483C42.5748 98.4861 42.5955 98.4239 42.6163 98.3617L42.7822 97.9054C42.7822 97.9054 42.8029 97.8432 42.8859 97.8639V97.8225H42.8237H42.6578H42.5126V97.8847C42.5126 97.8847 42.637 97.8639 42.637 97.9469C42.5955 98.0921 42.5541 98.2372 42.4919 98.3617C42.4504 98.2165 42.4089 98.0713 42.3467 97.9469C42.3467 97.8847 42.4711 97.8847 42.4711 97.8847V97.8225H42.3259H42.1393H42.0771V97.8639C42.16 97.8432 42.1808 97.9054 42.1808 97.9054L42.3467 98.3617C42.3674 98.4239 42.3882 98.4861 42.4089 98.5483C42.3052 98.8386 42.2223 99.1497 42.1186 99.4401C41.9734 98.9838 41.849 98.5483 41.7038 98.1335C41.6623 97.9676 41.6623 97.9262 41.9112 97.9054V97.8017H41.0609V97.9054C41.2683 97.9262 41.3098 97.9676 41.3927 98.2372C41.5794 98.7972 41.766 99.3778 41.9527 99.9585H42.0771C42.2015 99.5645 42.3467 99.1705 42.4919 98.7557C42.637 99.1705 42.7615 99.5645 42.9066 99.9585H43.0311C43.2177 99.3778 43.4043 98.7972 43.591 98.2372C43.6739 97.9676 43.7362 97.9262 43.9228 97.9054V97.8017H43.0518Z" fill="black"/>
</svg>
