<svg width="16" height="21" viewBox="0 0 16 21" fill="none" xmlns="http://www.w3.org/2000/svg">
<path d="M1.95623 5.5358L14.3436 5.5358L15.1214 19.5358L1.17845 19.5358L1.95623 5.5358Z" stroke="black"/>
<mask id="path-2-inside-1_14_171" fill="white">
<path d="M4.81665 3.36913C4.81665 1.52818 6.30903 0.0357971 8.14998 0.0357971C9.99093 0.0357971 11.4833 1.52818 11.4833 3.36913V5.0358H4.81665V3.36913Z"/>
</mask>
<path d="M3.81665 3.36913C3.81665 0.975896 5.75675 -0.964203 8.14998 -0.964203H8.14998C10.5432 -0.964203 12.4833 0.975896 12.4833 3.36913H10.4833C10.4833 2.08047 9.43865 1.0358 8.14998 1.0358H8.14998C6.86132 1.0358 5.81665 2.08047 5.81665 3.36913H3.81665ZM11.4833 5.0358H4.81665H11.4833ZM3.81665 5.0358V3.36913C3.81665 0.975896 5.75675 -0.964203 8.14998 -0.964203V1.0358C6.86132 1.0358 5.81665 2.08047 5.81665 3.36913V5.0358H3.81665ZM8.14998 -0.964203C10.5432 -0.964203 12.4833 0.975896 12.4833 3.36913V5.0358H10.4833V3.36913C10.4833 2.08047 9.43865 1.0358 8.14998 1.0358V-0.964203Z" fill="black" mask="url(#path-2-inside-1_14_171)"/>
</svg>
