<svg width="16" height="16" viewBox="0 0 16 16" fill="none" xmlns="http://www.w3.org/2000/svg">
<path d="M6.69181 3.54407L7.12448 4.31936C7.51495 5.01901 7.3582 5.93684 6.74322 6.55182C6.74322 6.55183 6.74322 6.55182 6.74322 6.55183C6.74311 6.55194 5.99737 7.29789 7.34976 8.65028C8.70149 10.002 9.4474 9.25763 9.44821 9.25682C9.44824 9.2568 9.44823 9.25681 9.44825 9.25678C10.0632 8.64183 10.981 8.4851 11.6807 8.87556L12.456 9.30823C13.5125 9.89784 13.6372 11.3795 12.7086 12.3081C12.1506 12.8661 11.467 13.3003 10.7114 13.3289C9.43927 13.3771 7.27893 13.0552 5.11188 10.8882C2.94483 8.72111 2.62289 6.56078 2.67112 5.28868C2.69976 4.53303 3.13395 3.84945 3.69195 3.29145C4.62058 2.36281 6.1022 2.48758 6.69181 3.54407Z" fill="#999999"/>
</svg>
