<svg width="12" height="14" viewBox="0 0 12 14" fill="none" xmlns="http://www.w3.org/2000/svg">
<path fill-rule="evenodd" clip-rule="evenodd" d="M6.00008 0.333374C3.05456 0.333374 0.666748 3.00176 0.666748 6.00004C0.666748 8.97482 2.36896 12.2083 5.02479 13.4497C5.64391 13.7391 6.35625 13.7391 6.97537 13.4497C9.6312 12.2083 11.3334 8.97482 11.3334 6.00004C11.3334 3.00176 8.9456 0.333374 6.00008 0.333374ZM6.00008 7.00004C6.73646 7.00004 7.33341 6.40309 7.33341 5.66671C7.33341 4.93033 6.73646 4.33337 6.00008 4.33337C5.2637 4.33337 4.66675 4.93033 4.66675 5.66671C4.66675 6.40309 5.2637 7.00004 6.00008 7.00004Z" fill="#999999"/>
</svg>
